<svg width="186" height="28" viewBox="0 0 186 28" fill="none" xmlns="http://www.w3.org/2000/svg">
<path d="M57.3004 14.1345C57.1441 6.94975 51.273 1.17578 44.0503 1.17578C36.8275 1.17578 30.7959 7.11025 30.7959 14.4301C30.7959 21.75 36.27 27.2114 43.1886 27.6549L43.1801 27.6845H57.3004V14.1387V14.1345ZM51.8685 22.202H43.573V22.1851C39.5139 21.9232 36.2995 18.5484 36.2995 14.4175C36.2995 10.2866 39.7842 6.63296 44.084 6.63296C48.3839 6.63296 51.7756 10.0247 51.8643 14.2443V22.1977L51.8685 22.202Z" fill="white"/>
<path d="M106.081 0.782715C102.904 0.782715 100.336 1.96538 98.2709 3.89145V1.31492C96.4335 0.94322 94.5962 0.892534 92.7588 1.31492V26.8944H98.2709V16.5418C98.2709 8.6348 101.946 6.08783 106.081 6.08783C107.246 6.08783 108.476 6.14274 108.792 6.35394C109.215 4.49545 109.215 3.11849 108.792 1.15441C107.732 0.94322 107.196 0.782715 106.085 0.782715H106.081Z" fill="white"/>
<path d="M173.692 0.411133C169.519 0.411133 166.03 2.28651 163.749 5.23474C161.612 2.28229 158.228 0.411133 154.055 0.411133C150.955 0.411133 148.564 1.80499 146.727 3.97181V1.31503C144.89 0.943334 143.052 0.943334 141.215 1.31503V26.8945H146.727V14.5821C146.727 9.43322 149.857 5.72048 153.996 5.72048C158.135 5.72048 160.737 9.43322 160.737 14.5821V26.8945H166.478V14.5821C166.478 9.43322 169.607 5.72048 173.747 5.72048C177.886 5.72048 180.488 9.43322 180.488 14.5821V26.8945H186V14.0499C186 5.98658 181.223 0.415357 173.692 0.415357V0.411133Z" fill="white"/>
<path d="M123.495 0.411133C115.96 0.411133 109.86 6.51455 109.86 14.0456C109.86 21.5767 115.964 27.6801 123.495 27.6801C131.026 27.6801 137.129 21.5767 137.129 14.0456C137.129 6.51455 131.03 0.411133 123.495 0.411133ZM123.495 22.3792C119.356 22.3792 115.693 18.7172 115.693 14.0499C115.693 9.38253 119.356 5.72048 123.495 5.72048C127.634 5.72048 131.296 9.43322 131.296 14.0499C131.296 18.6665 127.634 22.3792 123.495 22.3792Z" fill="white"/>
<path d="M75.6394 5.72895C78.558 5.72895 81.2655 7.6001 82.5918 10.3583H88.2179C87.1535 4.61386 81.8991 0.423828 75.6394 0.423828C68.1041 0.423828 62.0049 6.5188 62.0049 14.0541C62.0049 21.5894 68.1083 27.659 75.6394 27.659C81.8991 27.659 87.1535 23.4479 88.2137 17.7077H82.5876C81.3162 20.4616 78.6087 22.3539 75.6352 22.3539C71.4958 22.3539 67.8338 18.713 67.8338 14.0414C67.8338 9.36988 71.4958 5.72895 75.6352 5.72895H75.6394Z" fill="white"/>
<path d="M26.5003 14.1345C26.344 6.94975 20.4729 1.17578 13.2501 1.17578C6.02739 1.17578 0 7.11025 0 14.4301C0 21.75 5.47407 27.2114 12.3927 27.6549L12.3842 27.6845H26.5045V14.1387L26.5003 14.1345ZM21.0726 22.202H12.7771V22.1851C8.71797 21.9232 5.50364 18.5484 5.50364 14.4175C5.50364 10.2866 8.98829 6.63296 13.2881 6.63296C17.588 6.63296 20.9797 10.0247 21.0684 14.2443V22.1977L21.0726 22.202Z" fill="white"/>
</svg>
