<svg width="160" height="199" viewBox="0 0 160 199" fill="none" xmlns="http://www.w3.org/2000/svg">
<path d="M59.4707 134.562H67.1701" stroke="#FFD11A" stroke-width="4" stroke-miterlimit="10" stroke-linecap="round" stroke-linejoin="round"/>
<path d="M63.7646 163.682H67.17" stroke="#FFD11A" stroke-width="4" stroke-miterlimit="10" stroke-linecap="round" stroke-linejoin="round"/>
<path d="M59.7134 149.13H67.1699" stroke="#FFD11A" stroke-width="4" stroke-miterlimit="10" stroke-linecap="round" stroke-linejoin="round"/>
<path d="M124.826 169.838V126.481C124.826 122.523 121.618 119.315 117.66 119.315C113.703 119.315 110.494 122.523 110.494 126.481V169.838C110.494 173.796 113.703 177.004 117.66 177.004C121.618 177.004 124.826 173.796 124.826 169.838Z" stroke="#FFD11A" stroke-width="4" stroke-miterlimit="10" stroke-linecap="round" stroke-linejoin="round"/>
<path d="M111.512 122.815C107.727 120.033 99.3727 120.071 94.718 120.071" stroke="#FFD11A" stroke-width="4" stroke-miterlimit="10" stroke-linecap="round" stroke-linejoin="round"/>
<path d="M61.6591 120.019L59.7135 120.016C55.6952 120.016 52.4377 123.274 52.4377 127.292C52.4377 131.229 55.5649 134.433 59.4706 134.561H52.9462C48.9279 134.561 45.6704 137.819 45.6704 141.837C45.6704 145.856 48.9279 149.113 52.9462 149.113L59.7135 149.13C55.6952 149.13 52.4377 152.387 52.4377 156.406C52.4377 160.424 55.6952 163.681 59.7135 163.681H63.7646C59.8074 163.752 56.6211 166.98 56.6211 170.954C56.6211 174.972 59.8786 178.229 63.8968 178.229H96.9557C102.471 178.229 107.42 175.832 110.84 172.031" stroke="#FFD11A" stroke-width="4" stroke-miterlimit="10" stroke-linecap="round" stroke-linejoin="round"/>
<path d="M99.144 76.4031H91.4446" stroke="#FFD11A" stroke-width="4" stroke-miterlimit="10" stroke-linecap="round" stroke-linejoin="round"/>
<path d="M94.8495 105.523H91.4446" stroke="#FFD11A" stroke-width="4" stroke-miterlimit="10" stroke-linecap="round" stroke-linejoin="round"/>
<path d="M98.9007 90.9714H91.4446" stroke="#FFD11A" stroke-width="4" stroke-miterlimit="10" stroke-linecap="round" stroke-linejoin="round"/>
<path d="M33.7878 111.68V68.3229C33.7878 64.3652 36.9961 61.157 40.9537 61.157C44.9114 61.157 48.1196 64.3652 48.1196 68.3229V111.68C48.1196 115.638 44.9114 118.846 40.9537 118.846C36.9961 118.846 33.7878 115.638 33.7878 111.68Z" stroke="#FFD11A" stroke-width="4" stroke-miterlimit="10" stroke-linecap="round" stroke-linejoin="round"/>
<path d="M47.7749 113.873C51.1947 117.674 56.1436 120.071 61.6592 120.071H94.718C98.7363 120.071 101.994 116.814 101.994 112.795C101.994 108.821 98.8071 105.594 94.8502 105.523H98.9014C102.92 105.523 106.177 102.266 106.177 98.2474C106.177 94.2291 102.92 90.9716 98.9014 90.9716L105.669 90.9548C109.687 90.9548 112.944 87.6973 112.944 83.679C112.944 79.6607 109.687 76.4032 105.669 76.4032H99.1443C103.05 76.2749 106.177 73.0702 106.177 69.1337C106.177 65.1154 102.92 61.8579 98.9014 61.8579H71.955" stroke="#FFD11A" stroke-width="4" stroke-miterlimit="10" stroke-linecap="round" stroke-linejoin="round"/>
<path d="M71.955 47.3826C67.4317 47.5656 62.5724 49.2566 58.2964 52.5387C54.203 55.6804 49.6441 60.2984 46.8818 64.2967" stroke="#FFD11A" stroke-width="4" stroke-miterlimit="10" stroke-linecap="round" stroke-linejoin="round"/>
<path d="M106.099 9.38477H89.031" stroke="#FFD11A" stroke-width="4" stroke-miterlimit="10" stroke-linecap="round" stroke-linejoin="round"/>
<path d="M89.031 50.4399H153.339C157.212 50.4399 158.972 45.6014 156.003 43.1133L139.37 29.1762L155.235 16.8025C158.347 14.3755 156.631 9.38477 152.684 9.38477H119.789" stroke="#FFD11A" stroke-width="4" stroke-miterlimit="10" stroke-linecap="round" stroke-linejoin="round"/>
<path d="M89.0309 61.8577V7.58093C89.0309 4.49867 86.5323 2 83.45 2H77.535C74.4528 2 71.9541 4.49867 71.9541 7.58093V61.8577" stroke="#FFD11A" stroke-width="4" stroke-miterlimit="10" stroke-linecap="round" stroke-linejoin="round"/>
<path d="M33.788 68.7334H10.3847C5.75387 68.7334 2 72.4873 2 77.1181V102.884C2 107.515 5.75387 111.269 10.3847 111.269H33.788" stroke="#FFD11A" stroke-width="4" stroke-miterlimit="10" stroke-linecap="round" stroke-linejoin="round"/>
<path d="M156.614 143.994V135.277C156.614 130.646 152.86 126.892 148.229 126.892H124.826" stroke="#FFD11A" stroke-width="4" stroke-miterlimit="10" stroke-linecap="round" stroke-linejoin="round"/>
<path d="M124.826 169.428H148.229C152.86 169.428 156.614 165.674 156.614 161.043V157.684" stroke="#FFD11A" stroke-width="4" stroke-miterlimit="10" stroke-linecap="round" stroke-linejoin="round"/>
<path d="M71.9548 178.23V191.356C71.9548 194.143 74.2137 196.402 77.0007 196.402H83.9854C86.772 196.402 89.0313 194.143 89.0313 191.356V178.23" stroke="#FFD11A" stroke-width="4" stroke-miterlimit="10" stroke-linecap="round" stroke-linejoin="round"/>
</svg>
