<svg width="47" height="45" viewBox="0 0 47 45" fill="none" xmlns="http://www.w3.org/2000/svg">
<path d="M44.111 36.939L40.0088 32.8367" stroke="#5B1780" stroke-width="1.5" stroke-miterlimit="10" stroke-linecap="round" stroke-linejoin="round"/>
<path d="M23.127 33.2701C23.8418 33.7782 24.6131 34.2057 25.427 34.5434L28.7501 35.9219L36.9389 44.1108" stroke="#5B1780" stroke-width="1.5" stroke-miterlimit="10" stroke-linecap="round" stroke-linejoin="round"/>
<path d="M37.9111 30.7393L35.922 28.7502L35.7461 25.5346C35.6757 24.2456 35.2789 23.0057 34.6055 21.9259" stroke="#5B1780" stroke-width="1.5" stroke-miterlimit="10" stroke-linecap="round" stroke-linejoin="round"/>
<path d="M22.8954 10.231C21.825 9.5724 20.5998 9.18455 19.3266 9.11492L16.111 8.939L7.92188 0.750016" stroke="#5B1780" stroke-width="1.5" stroke-miterlimit="10" stroke-linecap="round" stroke-linejoin="round"/>
<path d="M0.75 7.92156L8.93908 16.1106L10.3176 19.4337C10.6385 20.2072 11.0406 20.9423 11.5159 21.627" stroke="#5B1780" stroke-width="1.5" stroke-miterlimit="10" stroke-linecap="round" stroke-linejoin="round"/>
<path d="M32.5029 24.0244L33.2954 23.2319C34.3828 22.1445 35.2457 20.8538 35.835 19.4334L37.2135 16.1104L45.4024 7.92154" stroke="#5B1780" stroke-width="1.5" stroke-miterlimit="10" stroke-linecap="round" stroke-linejoin="round"/>
<path d="M38.2298 0.749852L30.0409 8.93875L26.8253 9.11466C24.9552 9.21691 23.1887 10.0058 21.8644 11.3302L18.1597 15.0347C17.8179 15.3766 17.6341 15.8166 17.6084 16.2642" stroke="#5B1780" stroke-width="1.5" stroke-miterlimit="10" stroke-linecap="round" stroke-linejoin="round"/>
<path d="M27.7451 28.7822L32.503 24.0244C33.1079 23.4195 33.1636 22.434 32.5877 21.8011C31.9729 21.1255 30.9261 21.107 30.2876 21.7455L31.3633 20.6698C31.9839 20.0492 31.9839 19.0432 31.3633 18.4226C30.7428 17.8021 29.7367 17.8021 29.1162 18.4226L30.6222 16.9166C31.2428 16.296 31.2428 15.2899 30.6222 14.6695V14.6694C30.0017 14.0489 28.9957 14.0489 28.3751 14.6694L26.8691 16.1755C27.5076 15.5369 27.489 14.4902 26.8135 13.8753C26.1807 13.2995 25.1952 13.3551 24.5902 13.9601L23.3711 15.1792" stroke="#5B1780" stroke-width="1.5" stroke-miterlimit="10" stroke-linecap="round" stroke-linejoin="round"/>
<path d="M9.21289 44.1108L17.402 35.9218L20.725 34.5432C22.1454 33.9539 23.4361 33.0911 24.5233 32.0037L25.6473 30.8798" stroke="#5B1780" stroke-width="1.5" stroke-miterlimit="10" stroke-linecap="round" stroke-linejoin="round"/>
<path d="M21.2731 17.2767L19.0035 19.5462C19.7429 18.8068 19.7429 17.608 19.0035 16.8687C18.2642 16.1294 17.0654 16.1293 16.3261 16.8687L12.6216 20.5732C11.2972 21.8977 10.5083 23.6642 10.406 25.5343L10.2301 28.7499L2.04102 36.939" stroke="#5B1780" stroke-width="1.5" stroke-miterlimit="10" stroke-linecap="round" stroke-linejoin="round"/>
<path d="M26.8689 16.1755L21.4424 21.6021" stroke="#5B1780" stroke-width="1.5" stroke-miterlimit="10" stroke-linecap="round" stroke-linejoin="round"/>
<path d="M19.0036 19.5462L16.5771 21.9727" stroke="#5B1780" stroke-width="1.5" stroke-miterlimit="10" stroke-linecap="round" stroke-linejoin="round"/>
<path d="M29.116 18.4226L23.6895 23.8491" stroke="#5B1780" stroke-width="1.5" stroke-miterlimit="10" stroke-linecap="round" stroke-linejoin="round"/>
<path d="M30.2874 21.7458L25.9365 26.0967" stroke="#5B1780" stroke-width="1.5" stroke-miterlimit="10" stroke-linecap="round" stroke-linejoin="round"/>
</svg>
