<svg width="66" height="66" viewBox="0 0 66 66" fill="none" xmlns="http://www.w3.org/2000/svg">
<path d="M34.9202 36.374L28.6564 42.8308C27.1335 44.4232 27.1454 47.0044 28.6831 48.5815C30.1221 50.0572 32.4048 50.1388 33.9371 48.7691L38.4893 44.7003H41.4915C45.7783 44.7003 48.3513 42.0778 48.3513 37.6076" stroke="#5B1780" stroke-width="2" stroke-miterlimit="10"/>
<path d="M38.7749 44.2961L44.9542 50.7399C46.476 52.3268 46.476 54.8997 44.9542 56.4866C43.4324 58.0735 40.9651 58.0735 39.4433 56.4866L33.1255 49.8984" stroke="#5B1780" stroke-width="2" stroke-miterlimit="10"/>
<path d="M33.1257 49.8987L37.7146 54.6839C39.2364 56.2708 39.2364 58.8437 37.7146 60.4306C36.1928 62.0175 33.7255 62.0175 32.2037 60.4306L28.1646 56.2186" stroke="#5B1780" stroke-width="2" stroke-miterlimit="10"/>
<path d="M20.5677 30.8555H1V46.4479L7.65162 46.4598L24.4227 63.8098C25.9445 65.3967 28.4118 65.3967 29.9336 63.8098C31.4554 62.2228 31.4554 59.65 29.9336 58.063L28.1647 56.2185" stroke="#5B1780" stroke-width="2" stroke-miterlimit="10"/>
<path d="M51.9933 46.5869H64.9998V30.8555H45.4321" stroke="#5B1780" stroke-width="2" stroke-miterlimit="10"/>
<path d="M41.1318 46.7536L47.6144 53.5136C49.1362 55.1005 51.6035 55.1005 53.1253 53.5136C54.6471 51.9267 54.6471 49.3538 53.1253 47.7669L47.2484 41.6384" stroke="#5B1780" stroke-width="2" stroke-miterlimit="10"/>
<path d="M33.0002 36.4858C42.3972 36.4858 50.015 28.542 50.015 18.7429C50.015 8.94376 42.3972 1 33.0002 1C23.6032 1 15.9854 8.94376 15.9854 18.7429C15.9854 28.542 23.6032 36.4858 33.0002 36.4858Z" stroke="#5B1780" stroke-width="2" stroke-miterlimit="10"/>
<path d="M43.0008 3.36646L42.0226 4.07427C38.6704 6.49957 36.6709 10.4841 36.6709 14.7386C36.6709 18.2745 38.5795 21.5092 41.6062 23.1033V29.1555C41.6062 30.3982 42.0796 31.5899 42.9222 32.4686L43.4399 33.0085" stroke="#5B1780" stroke-width="2" stroke-miterlimit="10"/>
<path d="M21.543 5.62671L23.6293 7.33574C25.3166 8.71773 26.2515 10.8709 26.1345 13.1049L26.0161 15.3669L29.0218 21.212C29.9011 22.9218 30.2332 24.8799 29.9697 26.8005C29.6374 29.2233 28.383 31.4045 26.49 32.8513L24.9484 34.0295" stroke="#5B1780" stroke-width="2" stroke-miterlimit="10"/>
</svg>
