<svg width="66" height="66" viewBox="0 0 66 66" fill="none" xmlns="http://www.w3.org/2000/svg">
<path d="M34.9202 36.374L28.6564 42.8308C27.1335 44.4232 27.1454 47.0044 28.6831 48.5815C30.1221 50.0572 32.4048 50.1388 33.9371 48.7691L38.4893 44.7003H41.4915C45.7783 44.7003 48.3513 42.0778 48.3513 37.6076" stroke="white" stroke-width="2" stroke-miterlimit="10"/>
<path d="M38.7749 44.2964L44.9542 50.7401C46.476 52.327 46.476 54.8999 44.9542 56.4868C43.4324 58.0737 40.9651 58.0737 39.4433 56.4868L33.1255 49.8987" stroke="white" stroke-width="2" stroke-miterlimit="10"/>
<path d="M33.1257 49.8984L37.7146 54.6837C39.2364 56.2706 39.2364 58.8435 37.7146 60.4304C36.1928 62.0173 33.7255 62.0173 32.2037 60.4304L28.1646 56.2184" stroke="white" stroke-width="2" stroke-miterlimit="10"/>
<path d="M20.5677 30.8555H1V46.4479L7.65162 46.4598L24.4227 63.8098C25.9445 65.3967 28.4118 65.3967 29.9336 63.8098C31.4554 62.2228 31.4554 59.65 29.9336 58.063L28.1647 56.2185" stroke="white" stroke-width="2" stroke-miterlimit="10"/>
<path d="M51.9933 46.5869H64.9998V30.8555H45.4321" stroke="white" stroke-width="2" stroke-miterlimit="10"/>
<path d="M41.1318 46.7534L47.6144 53.5133C49.1362 55.1003 51.6035 55.1003 53.1253 53.5133C54.6471 51.9264 54.6471 49.3535 53.1253 47.7666L47.2484 41.6382" stroke="white" stroke-width="2" stroke-miterlimit="10"/>
<path d="M33.0002 36.4858C42.3972 36.4858 50.015 28.542 50.015 18.7429C50.015 8.94376 42.3972 1 33.0002 1C23.6032 1 15.9854 8.94376 15.9854 18.7429C15.9854 28.542 23.6032 36.4858 33.0002 36.4858Z" stroke="white" stroke-width="2" stroke-miterlimit="10"/>
<path d="M43.0008 3.3667L42.0226 4.07452C38.6704 6.49981 36.6709 10.4843 36.6709 14.7388C36.6709 18.2747 38.5795 21.5095 41.6062 23.1036V29.1557C41.6062 30.3984 42.0796 31.5902 42.9222 32.4688L43.4399 33.0087" stroke="white" stroke-width="2" stroke-miterlimit="10"/>
<path d="M21.543 5.62646L23.6293 7.3355C25.3166 8.71748 26.2515 10.8707 26.1345 13.1046L26.0161 15.3667L29.0218 21.2117C29.9011 22.9216 30.2332 24.8797 29.9697 26.8003C29.6374 29.2231 28.383 31.4043 26.49 32.8511L24.9484 34.0292" stroke="white" stroke-width="2" stroke-miterlimit="10"/>
</svg>
