<svg width="66" height="66" viewBox="0 0 66 66" fill="none" xmlns="http://www.w3.org/2000/svg">
<path d="M60.899 20.5418H61.0776C63.244 20.5416 65 18.7808 65 16.6087L64.9995 7.92843C64.9994 5.70688 63.2031 3.90612 60.9875 3.90625C58.7718 3.90638 56.9757 5.70728 56.9758 7.92883L56.9764 16.6091C56.9764 18.7811 58.7327 20.5419 60.899 20.5418Z" stroke="white" stroke-width="2" stroke-miterlimit="10" stroke-linecap="round" stroke-linejoin="round"/>
<path d="M56.9755 16.5194L56.975 6.59543C56.9749 4.37388 55.1786 2.57311 52.9631 2.57324C50.7474 2.57337 48.964 4.37428 48.9641 6.59582" stroke="white" stroke-width="2" stroke-miterlimit="10" stroke-linecap="round" stroke-linejoin="round"/>
<path d="M48.9635 12.5215L48.9631 5.02218C48.963 2.80077 47.1667 0.999867 44.951 1C42.7353 1.00013 40.9451 2.80103 40.9451 5.02258L40.9397 12.5182" stroke="white" stroke-width="2" stroke-miterlimit="10" stroke-linecap="round" stroke-linejoin="round"/>
<path d="M40.9453 6.6882C40.9452 4.46665 39.1549 2.66588 36.9392 2.66602C34.7235 2.66615 32.9274 4.46705 32.9275 6.6886L32.928 16.5203" stroke="white" stroke-width="2" stroke-miterlimit="10" stroke-linecap="round" stroke-linejoin="round"/>
<path d="M56.9664 12.5176V15.2189C56.9664 18.2633 54.5049 20.7312 51.4685 20.7312L44.0105 20.7314C46.8195 20.738 49.0931 23.023 49.0931 25.8394V28.7901" stroke="white" stroke-width="2" stroke-miterlimit="10" stroke-linecap="round" stroke-linejoin="round"/>
<path d="M64.9997 16.5032L65 22.3488C65.0001 26.4323 63.4836 30.1604 60.9846 32.9984L58.1451 35.9022L58.1739 64.9993L39.8769 65.0001L39.8763 35.9022C37.982 34.0666 35.7448 31.9735 34.5978 29.51C33.5276 27.3535 32.9257 24.9223 32.9256 22.3501L32.9253 16.6735C32.9252 14.3788 34.7805 12.5184 37.0691 12.5184L56.9661 12.5176" stroke="white" stroke-width="2" stroke-miterlimit="10" stroke-linecap="round" stroke-linejoin="round"/>
<path d="M28.9732 37.47H29.1518C31.3182 37.4699 33.0742 35.7091 33.0742 33.5369L33.0737 24.8567C33.0736 22.6351 31.2773 20.8343 29.0617 20.8345C26.846 20.8346 25.0499 22.6355 25.05 24.8571L25.0506 33.5373C25.0506 35.7093 26.8069 37.47 28.9732 37.47Z" stroke="white" stroke-width="2" stroke-miterlimit="10" stroke-linecap="round" stroke-linejoin="round"/>
<path d="M25.0498 33.4477L25.0493 23.5236C25.0492 21.3021 23.2529 19.5013 21.0373 19.5015C18.8216 19.5016 17.0315 21.3025 17.0315 23.524" stroke="white" stroke-width="2" stroke-miterlimit="10" stroke-linecap="round" stroke-linejoin="round"/>
<path d="M17.0378 29.4497L17.0316 21.9504C17.0314 19.7289 15.2412 17.9281 13.0255 17.9282C10.8097 17.9284 9.0196 19.7293 9.0196 21.9508L9.01416 29.4464" stroke="white" stroke-width="2" stroke-miterlimit="10" stroke-linecap="round" stroke-linejoin="round"/>
<path d="M9.01952 23.6169C9.01939 21.3954 7.22911 19.5946 5.0134 19.5947C2.7977 19.5949 1.00158 21.3958 1.00171 23.6173L1.00224 33.449" stroke="white" stroke-width="2" stroke-miterlimit="10" stroke-linecap="round" stroke-linejoin="round"/>
<path d="M25.0406 29.4458V32.1471C25.0406 35.1915 22.5791 37.6595 19.5427 37.6595L12.0847 37.6596C14.8937 37.6662 17.1673 39.9513 17.1673 42.7677V45.7183" stroke="white" stroke-width="2" stroke-miterlimit="10" stroke-linecap="round" stroke-linejoin="round"/>
<path d="M33.0743 33.4315L33.0746 39.277C33.0747 43.3605 31.5582 47.0886 29.0592 49.9266L26.2196 52.8304L26.2485 64.9243L7.95145 64.9251L7.95092 52.8304C6.05654 50.9949 3.81933 48.9017 2.67237 46.4382C1.60216 44.2818 1.00027 41.8505 1.00013 39.2783L1 33.6017C0.999867 31.307 2.85521 29.4466 5.14381 29.4466L25.0408 29.4458" stroke="white" stroke-width="2" stroke-miterlimit="10" stroke-linecap="round" stroke-linejoin="round"/>
</svg>
