<svg width="66" height="66" viewBox="0 0 66 66" fill="none" xmlns="http://www.w3.org/2000/svg">
<path d="M19.7478 22.7992C20.5264 22.5423 21.3714 21.8792 21.6069 21.0298L22.834 16.5997V34.0742" stroke="#5B1780" stroke-width="2" stroke-miterlimit="10" stroke-linecap="round" stroke-linejoin="round"/>
<path d="M25.8814 1.00019H24.7788C23.4635 1.00019 22.3974 2.0663 22.3974 3.38158L22.3988 6.18032C22.399 6.65086 22.1466 7.08508 21.7377 7.31777C20.4824 8.03168 19.5512 9.21497 19.1492 10.6952L16.7112 19.673C16.3363 21.0248 17.1285 22.4246 18.4804 22.7993" stroke="#5B1780" stroke-width="2" stroke-miterlimit="10" stroke-linecap="round" stroke-linejoin="round"/>
<path d="M43.1547 32.8228V13.3558C43.1547 11.8531 42.5638 10.4883 41.6014 9.48145C41.1888 9.04967 40.9706 8.46762 40.9706 7.87038L40.9704 3.38149C40.9704 2.06621 39.9041 1.0001 38.589 1.0001H29.7446" stroke="#5B1780" stroke-width="2" stroke-miterlimit="10" stroke-linecap="round" stroke-linejoin="round"/>
<path d="M27.9426 31.4404V21.3208" stroke="#5B1780" stroke-width="2" stroke-miterlimit="10" stroke-linecap="round" stroke-linejoin="round"/>
<path d="M33 28.0127V21.3201" stroke="#5B1780" stroke-width="2" stroke-miterlimit="10" stroke-linecap="round" stroke-linejoin="round"/>
<path d="M38.1006 29.3855V21.3206" stroke="#5B1780" stroke-width="2" stroke-miterlimit="10" stroke-linecap="round" stroke-linejoin="round"/>
<path d="M22.4055 22.882H13.3556C11.8529 22.882 10.4882 23.473 9.48135 24.4354C9.04944 24.848 8.46752 25.0662 7.87027 25.0662L3.38126 25.0664C2.06611 25.0664 1 26.1326 1 27.4478V27.9624V29.5655V33.0426V34.499V41.258C1 42.5733 2.06611 43.6394 3.38126 43.6394L6.18013 43.638C6.65054 43.6377 7.08489 43.8901 7.31745 44.299C8.0315 45.5544 9.21479 46.4855 10.695 46.8876L19.6728 49.3256C21.0246 49.7003 22.2697 48.9692 22.6445 47.6172C23.0192 46.2653 22.3816 44.8048 21.0298 44.4301L16.5996 43.2029H22.5099" stroke="#5B1780" stroke-width="2" stroke-miterlimit="10" stroke-linecap="round" stroke-linejoin="round"/>
<path d="M21.7383 38.1228H18.1667" stroke="#5B1780" stroke-width="2" stroke-miterlimit="10" stroke-linecap="round" stroke-linejoin="round"/>
<path d="M22.4053 33.0425H18.1667" stroke="#5B1780" stroke-width="2" stroke-miterlimit="10" stroke-linecap="round" stroke-linejoin="round"/>
<path d="M22.4053 27.9622H18.1667" stroke="#5B1780" stroke-width="2" stroke-miterlimit="10" stroke-linecap="round" stroke-linejoin="round"/>
<path d="M43.2007 19.8015C43.4318 20.6312 44.0796 21.3228 44.9701 21.5697L49.4003 22.7969H43.3018" stroke="#5B1780" stroke-width="2" stroke-miterlimit="10" stroke-linecap="round" stroke-linejoin="round"/>
<path d="M65.0001 27.1387V24.7422C65.0001 23.4269 63.9338 22.3608 62.6187 22.3608L59.8199 22.3622C59.3494 22.3625 58.9152 22.1101 58.6825 21.7011C57.9686 20.4458 56.7853 19.5146 55.305 19.1127L46.3271 16.6746C44.9753 16.2999 43.5757 17.092 43.2009 18.4438" stroke="#5B1780" stroke-width="2" stroke-miterlimit="10" stroke-linecap="round" stroke-linejoin="round"/>
<path d="M43.981 43.1177H52.6444C54.1472 43.1177 55.5118 42.5267 56.5188 41.5643C56.9505 41.1517 57.5325 40.9336 58.1297 40.9336L62.6187 40.9333C63.9339 40.9333 65.0001 39.8671 65.0001 38.5519V38.0373V36.4343V32.9571V31.5007V31.0013" stroke="#5B1780" stroke-width="2" stroke-miterlimit="10" stroke-linecap="round" stroke-linejoin="round"/>
<path d="M43.1777 27.8772H47.833" stroke="#5B1780" stroke-width="2" stroke-miterlimit="10" stroke-linecap="round" stroke-linejoin="round"/>
<path d="M43.1538 32.9575H47.8331" stroke="#5B1780" stroke-width="2" stroke-miterlimit="10" stroke-linecap="round" stroke-linejoin="round"/>
<path d="M43.1777 38.0378H47.833" stroke="#5B1780" stroke-width="2" stroke-miterlimit="10" stroke-linecap="round" stroke-linejoin="round"/>
<path d="M47.4687 43.2995C46.1169 42.9248 44.7558 43.6182 44.381 44.9701L43.154 49.4002V31.9257C43.154 30.523 42.0166 29.3856 40.6138 29.3856C39.2109 29.3856 38.0738 30.523 38.0738 31.9257V28.1156C38.0738 26.7127 36.9364 25.5755 35.5336 25.5755C34.1307 25.5755 32.9935 26.7127 32.9935 28.1156V29.5445V29.5444C32.9935 28.1108 31.8059 26.9545 30.3608 27.0059C28.9843 27.055 27.9133 28.228 27.9133 29.6053V33.1188L27.9132 33.1163C27.9132 31.6828 26.7257 30.5266 25.2805 30.5779C23.904 30.6269 22.833 31.8 22.833 33.1773V52.6443C22.833 54.1471 23.4241 55.5117 24.3863 56.5187C24.799 56.9504 25.0171 57.5324 25.0171 58.1297L25.0175 62.6186C25.0175 63.9338 26.0836 65 27.3989 65H41.2091C42.5243 65 43.5904 63.9338 43.5904 62.6186L43.5889 59.8199C43.5887 59.3493 43.8411 58.9151 44.2501 58.6824C45.5053 57.9684 46.4365 56.7851 46.8385 55.3048L49.2767 46.3271C49.6514 44.9752 48.8206 43.6742 47.4687 43.2995Z" stroke="#5B1780" stroke-width="2" stroke-miterlimit="10" stroke-linecap="round" stroke-linejoin="round"/>
<path d="M38.0737 31.0015V44.6792" stroke="#5B1780" stroke-width="2" stroke-miterlimit="10" stroke-linecap="round" stroke-linejoin="round"/>
<path d="M32.9934 28.5448V44.6792" stroke="#5B1780" stroke-width="2" stroke-miterlimit="10" stroke-linecap="round" stroke-linejoin="round"/>
<path d="M27.9131 32.2299V44.6792" stroke="#5B1780" stroke-width="2" stroke-miterlimit="10" stroke-linecap="round" stroke-linejoin="round"/>
</svg>
