<svg width="66" height="66" viewBox="0 0 66 66" fill="none" xmlns="http://www.w3.org/2000/svg">
<path d="M40.4667 28.5692C44.8625 25.995 47.8107 21.217 47.7949 15.7515C47.7716 7.6731 41.186 1.05801 33.1078 1.00039C24.8875 0.941697 18.2046 7.58852 18.2046 15.7952C18.2046 21.2424 21.1488 26.0017 25.533 28.5692" stroke="#5B1780" stroke-width="2" stroke-miterlimit="10" stroke-linecap="round" stroke-linejoin="round"/>
<path d="M40.4669 28.5696H25.5332V36.5855H40.4669V28.5696Z" stroke="#5B1780" stroke-width="2" stroke-miterlimit="10" stroke-linecap="round" stroke-linejoin="round"/>
<path d="M33.0003 28.0853V16.523L29.074 12.5967" stroke="#5B1780" stroke-width="2" stroke-miterlimit="10" stroke-linecap="round" stroke-linejoin="round"/>
<path d="M33 16.523L36.9263 12.5967" stroke="#5B1780" stroke-width="2" stroke-miterlimit="10" stroke-linecap="round" stroke-linejoin="round"/>
<path d="M35.7948 44.5525H30.205C28.5137 44.5525 27.1426 43.1814 27.1426 41.49V36.5857H38.8571V41.49C38.8571 43.1814 37.486 44.5525 35.7948 44.5525Z" stroke="#5B1780" stroke-width="2" stroke-miterlimit="10" stroke-linecap="round" stroke-linejoin="round"/>
<path d="M8.834 18.5271H1V65H64.9998V18.5271H57.4314" stroke="#5B1780" stroke-width="2" stroke-miterlimit="10" stroke-linecap="round" stroke-linejoin="round"/>
<path d="M18.6438 12.204C13.4149 11.9876 8.9668 12.6847 8.9668 12.6847V57.0331H32.9999" stroke="#5B1780" stroke-width="2" stroke-miterlimit="10" stroke-linecap="round" stroke-linejoin="round"/>
<path d="M47.3535 12.2174C52.6979 11.9638 57.2987 12.6848 57.2987 12.6848V17.1993V57.0332H33" stroke="#5B1780" stroke-width="2" stroke-miterlimit="10" stroke-linecap="round" stroke-linejoin="round"/>
<path d="M33 44.6846V64.9999" stroke="#5B1780" stroke-width="2" stroke-miterlimit="10" stroke-linecap="round" stroke-linejoin="round"/>
</svg>
