<svg width="56" height="54" viewBox="0 0 56 54" fill="none" xmlns="http://www.w3.org/2000/svg">
<path d="M31.0982 50.9821C29.3853 52.659 26.6462 52.659 24.9333 50.9821C24.1098 50.1759 23.0032 49.7244 21.8508 49.7244H5.99999C3.23857 49.7244 1 47.4859 1 44.7244V20.9248C1 18.1634 3.23858 15.9248 6 15.9248H49.6681C52.4295 15.9248 54.6681 18.1634 54.6681 20.9248V44.7244C54.6681 47.4859 52.4295 49.7244 49.6681 49.7244H34.1807C33.0283 49.7244 31.9217 50.1759 31.0982 50.9821Z" stroke="white" stroke-width="2" stroke-miterlimit="10" stroke-linecap="round"/>
<path d="M8.45996 30.3684V27.3337C8.45996 25.3747 10.0481 23.7866 12.0071 23.7866H14.9179V33.9156H12.0071C10.0481 33.9155 8.45996 32.3274 8.45996 30.3684Z" stroke="white" stroke-width="2" stroke-miterlimit="10" stroke-linecap="round"/>
<path d="M40.75 23.7861H43.6609C45.6199 23.7861 47.208 25.3742 47.208 27.3332V30.3679C47.208 32.3269 45.6199 33.915 43.6609 33.915H40.75V23.7861Z" stroke="white" stroke-width="2" stroke-miterlimit="10" stroke-linecap="round"/>
<path d="M47.2079 27.3335V20.3739C47.2079 9.67407 38.5339 1 27.8339 1C17.134 1 8.45996 9.67396 8.45996 20.3739V27.3335" stroke="white" stroke-width="2" stroke-miterlimit="10" stroke-linecap="round"/>
<path d="M47.2082 30.3682V36.0036C47.2082 39.1549 44.6536 41.7095 41.5023 41.7095H29.5044" stroke="white" stroke-width="2" stroke-miterlimit="10" stroke-linecap="round"/>
<path d="M26.1636 33.9155H29.5039" stroke="white" stroke-width="2" stroke-miterlimit="10" stroke-linecap="round"/>
<path d="M32.6216 33.9155H35.9619" stroke="white" stroke-width="2" stroke-miterlimit="10" stroke-linecap="round"/>
<path d="M19.7061 33.9155H23.0464" stroke="white" stroke-width="2" stroke-miterlimit="10" stroke-linecap="round"/>
</svg>
