<svg width="67" height="61" viewBox="0 0 67 61" fill="none" xmlns="http://www.w3.org/2000/svg">
<path fill-rule="evenodd" clip-rule="evenodd" d="M3.61067 59.4241H62.612C64.0479 59.4241 65.2227 58.2493 65.2227 56.8135V52.8975H40.9433C40.9433 53.6154 40.3561 54.2028 39.638 54.2028H26.5847C25.8667 54.2028 25.2793 53.6154 25.2793 52.8975H1V56.8135C1 58.2495 2.1748 59.4241 3.61067 59.4241Z" stroke="#5B1780" stroke-width="2" stroke-miterlimit="22.9256" stroke-linecap="round" stroke-linejoin="round"/>
<path d="M62.6114 52.2443V9.82112C62.6114 8.38525 61.4366 7.21045 60.0008 7.21045H41.8447M24.377 7.21045H6.22102C4.78515 7.21045 3.61035 8.38525 3.61035 9.82112V52.2443" stroke="#5B1780" stroke-width="2" stroke-miterlimit="22.9256" stroke-linecap="round" stroke-linejoin="round"/>
<path d="M42.88 13.0845H56.7374V47.0231H9.48438V13.0845H23.3419" stroke="#5B1780" stroke-width="2" stroke-miterlimit="22.9256" stroke-linecap="round" stroke-linejoin="round"/>
<path d="M35.3602 21.3051C40.6222 20.0626 43.8806 14.7897 42.6381 9.52768C41.3956 4.26569 36.1227 1.00726 30.8607 2.24976C25.5987 3.49226 22.3403 8.76519 23.5828 14.0272C24.8253 19.2892 30.0982 22.5476 35.3602 21.3051Z" stroke="#5B1780" stroke-width="2" stroke-miterlimit="22.9256" stroke-linecap="round" stroke-linejoin="round"/>
<path d="M41.4263 17.2803L50.6355 25.8402L46.4819 30.0048L37.8066 20.6213" stroke="#5B1780" stroke-width="2" stroke-miterlimit="22.9256" stroke-linecap="round" stroke-linejoin="round"/>
<path d="M15.3584 18.7412H19.0623" stroke="#5B1780" stroke-width="2" stroke-miterlimit="22.9256" stroke-linecap="round" stroke-linejoin="round"/>
<path d="M15.3584 24.3979H22.7662" stroke="#5B1780" stroke-width="2" stroke-miterlimit="22.9256" stroke-linecap="round" stroke-linejoin="round"/>
<path d="M15.3584 30.0542H30.174" stroke="#5B1780" stroke-width="2" stroke-miterlimit="22.9256" stroke-linecap="round" stroke-linejoin="round"/>
<path d="M15.3584 35.7104H30.174" stroke="#5B1780" stroke-width="2" stroke-miterlimit="22.9256" stroke-linecap="round" stroke-linejoin="round"/>
<path d="M15.3584 41.3667H30.174" stroke="#5B1780" stroke-width="2" stroke-miterlimit="22.9256" stroke-linecap="round" stroke-linejoin="round"/>
<path d="M50.8644 35.7104H36.0488V41.3669H50.8644V35.7104Z" stroke="#5B1780" stroke-width="2" stroke-miterlimit="22.9256" stroke-linecap="round" stroke-linejoin="round"/>
</svg>
