<svg width="57" height="57" viewBox="0 0 57 57" fill="none" xmlns="http://www.w3.org/2000/svg">
<path d="M41.3334 45.9167C43.8647 45.9167 45.9167 43.8647 45.9167 41.3334C45.9167 38.802 43.8647 36.75 41.3334 36.75C38.802 36.75 36.75 38.802 36.75 41.3334C36.75 43.8647 38.802 45.9167 41.3334 45.9167Z" stroke="#5B1780" stroke-width="2" stroke-miterlimit="10" stroke-linecap="round" stroke-linejoin="round"/>
<path d="M44.4796 29.8377L44.0836 26.667H38.5836L38.1877 29.8377C37.2133 30.1036 36.2893 30.4904 35.4313 30.9808L32.9077 29.0183L29.0183 32.9077L30.9808 35.4313C30.4913 36.2883 30.1036 37.2133 29.8377 38.1877L26.667 38.5836V44.0836L29.8377 44.4796C30.1036 45.4539 30.4904 46.378 30.9808 47.236L29.0183 49.7596L32.9077 53.6489L35.4313 51.6864C36.2883 52.1759 37.2133 52.5637 38.1877 52.8295L38.5836 56.0002H44.0836L44.4796 52.8295C45.4539 52.5637 46.378 52.1768 47.236 51.6864L49.7596 53.6489L53.6489 49.7596L51.6864 47.236C52.1759 46.3789 52.5637 45.4539 52.8295 44.4796L56.0002 44.0836V38.5836L52.8295 38.1877C52.5637 37.2133 52.1768 36.2893 51.6864 35.4313L53.6489 32.9077L49.7596 29.0183L47.236 30.9808C46.3789 30.4912 45.4539 30.1035 44.4796 29.8377Z" stroke="#5B1780" stroke-width="2" stroke-miterlimit="10" stroke-linecap="round" stroke-linejoin="round"/>
<path d="M27.5836 4.66663C27.5836 2.64167 25.9418 1 23.917 1C21.6776 1 18.8231 1 16.5836 1C14.5587 1 12.917 2.64178 12.917 4.66663C12.917 6.5 12.917 8.33326 12.917 8.33326H27.5836V4.66663Z" stroke="#5B1780" stroke-width="2" stroke-miterlimit="10" stroke-linecap="round" stroke-linejoin="round"/>
<path d="M31.5919 52.3332H4.66663C2.64178 52.3332 1 50.6915 1 48.6665C1 39.7877 1 17.212 1 8.33313C1 6.30817 2.64178 4.6665 4.66663 4.6665H12.9166V8.33313H27.5833V4.6665H35.8332C36.8058 4.6665 37.7381 5.05242 38.4256 5.74083C39.114 6.42833 39.4999 7.36059 39.4999 8.33313C39.4999 14.5913 39.4999 26.6665 39.4999 26.6665" stroke="#5B1780" stroke-width="2" stroke-miterlimit="10" stroke-linecap="round" stroke-linejoin="round"/>
<path d="M20.2496 15.6665C15.1869 15.6665 11.083 19.7704 11.083 24.8331C11.083 29.8922 15.1907 33.9998 20.2496 33.9998C22.6806 33.9998 25.0126 33.0336 26.7314 31.3148L20.2496 24.8332V15.6665Z" stroke="#5B1780" stroke-width="2" stroke-miterlimit="10" stroke-linecap="round" stroke-linejoin="round"/>
<path d="M20.25 15.6665C25.3127 15.6665 29.4166 19.7704 29.4166 24.8331C29.4166 27.2641 28.4505 29.5961 26.7317 31.3149L20.25 24.8332V15.6665Z" stroke="#5B1780" stroke-width="2" stroke-miterlimit="10" stroke-linecap="round" stroke-linejoin="round"/>
<path d="M10.167 43.1665H26.667" stroke="#5B1780" stroke-width="2" stroke-miterlimit="10" stroke-linecap="round" stroke-linejoin="round"/>
</svg>
