<svg width="54" height="56" viewBox="0 0 54 56" fill="none" xmlns="http://www.w3.org/2000/svg">
<path d="M49.5264 40.1538V12.6434" stroke="white" stroke-width="2" stroke-miterlimit="10" stroke-linecap="round"/>
<path d="M5 37.4995V12.6434" stroke="white" stroke-width="2" stroke-miterlimit="10" stroke-linecap="round"/>
<path d="M11.8159 42.7935H42.213" stroke="white" stroke-width="2" stroke-miterlimit="10" stroke-linecap="round"/>
<path d="M27 0.999855V6.43213" stroke="white" stroke-width="2" stroke-miterlimit="10" stroke-linecap="round"/>
<path d="M53 9.53747C53 7.82229 51.6096 6.43187 49.8944 6.43187H4.1056C2.39042 6.43187 1 7.82229 1 9.53747C1 11.2526 2.39042 12.6431 4.1056 12.6431H49.8944C51.6096 12.6431 53 11.2526 53 9.53747Z" stroke="white" stroke-width="2" stroke-miterlimit="10" stroke-linecap="round"/>
<path d="M30.0466 51.5625C30.0466 53.245 28.6826 54.6089 27.0001 54.6089C25.3176 54.6089 23.9536 53.245 23.9536 51.5625C23.9536 49.8799 25.3176 48.516 27.0001 48.516C28.6826 48.516 30.0466 49.8799 30.0466 51.5625Z" stroke="white" stroke-width="2" stroke-miterlimit="10" stroke-linecap="round"/>
<path d="M18.0439 20.9687V28.7949" stroke="white" stroke-width="2" stroke-miterlimit="10" stroke-linecap="round"/>
<path d="M23.9536 17.8427V28.7949" stroke="white" stroke-width="2" stroke-miterlimit="10" stroke-linecap="round"/>
<path d="M29.8633 21.8239V28.7949" stroke="white" stroke-width="2" stroke-miterlimit="10" stroke-linecap="round"/>
<path d="M35.7729 23.8549V28.7949" stroke="white" stroke-width="2" stroke-miterlimit="10" stroke-linecap="round"/>
<path d="M16.2172 54.6089H1.05371V52.4413C1.05371 48.254 4.44817 44.8595 8.63546 44.8595C12.8226 44.8595 16.2172 48.254 16.2172 52.4413V54.6089Z" stroke="white" stroke-width="2" stroke-miterlimit="10" stroke-linecap="round"/>
<path d="M12.7684 40.1539C12.7684 42.4366 10.9179 44.2871 8.6352 44.2871C6.35248 44.2871 4.50195 42.4366 4.50195 40.1539C4.50195 37.8711 6.35248 36.0205 8.6352 36.0205C10.9179 36.0205 12.7684 37.8711 12.7684 40.1539Z" stroke="white" stroke-width="2" stroke-miterlimit="10" stroke-linecap="round"/>
<path d="M52.9745 54.6089H37.811V52.4413C37.811 48.254 41.2055 44.8595 45.3929 44.8595C49.5801 44.8595 52.9745 48.254 52.9745 52.4413V54.6089Z" stroke="white" stroke-width="2" stroke-miterlimit="10" stroke-linecap="round"/>
<path d="M49.5263 40.1539C49.5263 42.4366 47.6758 44.2871 45.393 44.2871C43.1103 44.2871 41.2598 42.4366 41.2598 40.1539C41.2598 37.8711 43.1103 36.0205 45.393 36.0205C47.6758 36.0205 49.5263 37.8711 49.5263 40.1539Z" stroke="white" stroke-width="2" stroke-miterlimit="10" stroke-linecap="round"/>
<path d="M16.5288 33.7178H37.8113" stroke="white" stroke-width="2" stroke-miterlimit="10" stroke-linecap="round"/>
<path d="M27 42.7934V48.5161" stroke="white" stroke-width="2" stroke-miterlimit="10" stroke-linecap="round"/>
</svg>
