<svg width="68" height="68" viewBox="0 0 68 68" fill="none" xmlns="http://www.w3.org/2000/svg">
<path d="M17.5 25.3282L34 18.2744L50.5 25.3282L34 32.3821L17.5 25.3282Z" stroke="#5B1780" stroke-width="2" stroke-miterlimit="10" stroke-linecap="round"/>
<path d="M46.375 27.0918V38.7865C38.471 42.1655 29.529 42.1655 21.625 38.7865V27.0918" stroke="#5B1780" stroke-width="2" stroke-miterlimit="10" stroke-linecap="round"/>
<path d="M62.875 9.25V50.5H5.125V9.25" stroke="#5B1780" stroke-width="2" stroke-miterlimit="10" stroke-linecap="round"/>
<path d="M67 1H1V9.25H67V1Z" stroke="#5B1780" stroke-width="2" stroke-miterlimit="10" stroke-linecap="round"/>
<path d="M34 67C36.2782 67 38.125 65.1532 38.125 62.875C38.125 60.5968 36.2782 58.75 34 58.75C31.7218 58.75 29.875 60.5968 29.875 62.875C29.875 65.1532 31.7218 67 34 67Z" stroke="#5B1780" stroke-width="2" stroke-miterlimit="10" stroke-linecap="round"/>
<path d="M34 58.75V50.5" stroke="#5B1780" stroke-width="2" stroke-miterlimit="10" stroke-linecap="round"/>
</svg>
