<svg width="49" height="40" viewBox="0 0 49 40" fill="none" xmlns="http://www.w3.org/2000/svg">
<path d="M24.7575 8.67637L16.7547 13.2969C15.3698 14.0964 13.5991 13.6218 12.7995 12.2371C12 10.8522 12.4745 9.08143 13.8593 8.28193L23.9949 2.43013C24.9871 1.85734 26.1825 1.75474 27.2578 2.15025L32.6352 4.12816L38.4859 0.750251L47.2685 15.7156L43.015 19.2173L24.7575 8.67637Z" stroke="#5B1780" stroke-width="1.5" stroke-miterlimit="10" stroke-linecap="round" stroke-linejoin="round"/>
<path d="M38.8007 16.7837L44.6514 20.1616C46.0362 20.9611 46.5108 22.7319 45.7112 24.1167C44.9116 25.5015 43.1409 25.9761 41.756 25.1766L35.9053 21.7987" stroke="#5B1780" stroke-width="1.5" stroke-miterlimit="10" stroke-linecap="round" stroke-linejoin="round"/>
<path d="M35.9051 21.7981L43.4274 26.1411C44.8124 26.9406 45.2868 28.7114 44.4873 30.0962C43.6878 31.481 41.917 31.9556 40.5321 31.1561L33.0098 26.813" stroke="#5B1780" stroke-width="1.5" stroke-miterlimit="10" stroke-linecap="round" stroke-linejoin="round"/>
<path d="M33.0096 26.8135L38.8603 30.1915C40.2452 30.991 40.7197 32.7618 39.9201 34.1466C39.1205 35.5314 37.3498 36.0059 35.965 35.2064L30.1143 31.8284" stroke="#5B1780" stroke-width="1.5" stroke-miterlimit="10" stroke-linecap="round" stroke-linejoin="round"/>
<path d="M30.1141 31.8286L33.4575 33.7588C34.8422 34.5583 35.3167 36.3291 34.5172 37.7138C33.7177 39.0987 31.9469 39.5732 30.5621 38.7737L27.2188 36.8435" stroke="#5B1780" stroke-width="1.5" stroke-miterlimit="10" stroke-linecap="round" stroke-linejoin="round"/>
<path d="M13.9951 34.6556C12.6102 33.8561 12.1357 32.0852 12.9353 30.7004L15.3481 26.5214C16.1476 25.1365 17.9183 24.662 19.3033 25.4615C20.6881 26.2611 21.1625 28.0319 20.363 29.4167L17.9502 33.5958C17.1507 34.9806 15.38 35.4551 13.9951 34.6556Z" stroke="#5B1780" stroke-width="1.5" stroke-miterlimit="10" stroke-linecap="round" stroke-linejoin="round"/>
<path d="M19.0097 37.5511C17.6248 36.7516 17.1504 34.9808 17.95 33.5959L19.3976 31.0885C20.1971 29.7036 21.9678 29.2292 23.3527 30.0288C24.7375 30.8283 25.2121 32.599 24.4125 33.9838L22.9648 36.4913C22.1652 37.8761 20.3945 38.3506 19.0097 37.5511Z" stroke="#5B1780" stroke-width="1.5" stroke-miterlimit="10" stroke-linecap="round" stroke-linejoin="round"/>
<path d="M3.96572 28.8646C2.58087 28.065 2.10642 26.2942 2.90602 24.9094L5.31881 20.7304C6.11832 19.3454 7.88902 18.871 9.27386 19.6705C10.6587 20.4701 11.1333 22.2409 10.3337 23.6257L7.92086 27.8048C7.12127 29.1895 5.35056 29.6641 3.96572 28.8646Z" stroke="#5B1780" stroke-width="1.5" stroke-miterlimit="10" stroke-linecap="round" stroke-linejoin="round"/>
<path d="M8.98041 31.7601C7.59556 30.9606 7.12102 29.1897 7.92071 27.8049L11.2986 21.9541C12.0981 20.5694 13.8688 20.0949 15.2537 20.8944C16.6385 21.6939 17.113 23.4647 16.3134 24.8496L12.9355 30.7003C12.136 32.085 10.3653 32.5596 8.98041 31.7601Z" stroke="#5B1780" stroke-width="1.5" stroke-miterlimit="10" stroke-linecap="round" stroke-linejoin="round"/>
<path d="M16.0716 7.00471L8.96517 2.9017L0.75 18.2182L5.26366 20.8242" stroke="#5B1780" stroke-width="1.5" stroke-miterlimit="10" stroke-linecap="round" stroke-linejoin="round"/>
<path d="M23.876 34.913L27.2192 36.8433" stroke="#5B1780" stroke-width="1.5" stroke-miterlimit="10" stroke-linecap="round" stroke-linejoin="round"/>
</svg>
