<svg width="47" height="38" viewBox="0 0 47 38" fill="none" xmlns="http://www.w3.org/2000/svg">
<path d="M5.20801 1.81055C6.0223 1.14726 7.06218 0.75 8.19463 0.75C9.50055 0.75 10.6842 1.27938 11.5408 2.13591C12.3973 2.99244 12.9267 4.17612 12.9267 5.48204V7.89255C12.9267 9.87344 11.7097 11.5694 9.98409 12.275H13.7365C14.7871 12.275 15.6392 13.127 15.6392 14.1777" stroke="white" stroke-width="1.5" stroke-miterlimit="10" stroke-linecap="round" stroke-linejoin="round"/>
<path d="M3.57574 4.44482C3.50114 4.77827 3.4616 5.1252 3.4616 5.48201V7.89252C3.4616 9.87341 4.67764 11.5694 6.40418 12.2749H2.6527C1.60114 12.2749 0.75 13.127 0.75 14.1776V25.726C0.75 26.6688 1.51396 27.4327 2.45767 27.4327H4.31363L5.51619 35.4129C5.61955 36.096 6.20645 36.602 6.8976 36.602H9.49146C10.1826 36.602 10.7695 36.096 10.8729 35.4129L12.0754 27.4327H13.9314C14.8751 27.4327 15.6391 26.6688 15.6391 25.726" stroke="white" stroke-width="1.5" stroke-miterlimit="10" stroke-linecap="round" stroke-linejoin="round"/>
<path d="M45.4184 17.3579V25.7264C45.4184 26.6692 44.6535 27.4332 43.7107 27.4332H41.8547L40.6513 35.4134C40.5488 36.0964 39.9619 36.6024 39.2708 36.6024H36.6769C35.9857 36.6024 35.3988 36.0964 35.2955 35.4134L34.0929 27.4332H32.2361C31.2933 27.4332 30.5293 26.6692 30.5293 25.7264" stroke="white" stroke-width="1.5" stroke-miterlimit="10" stroke-linecap="round" stroke-linejoin="round"/>
<path d="M30.5293 14.1777C30.5293 13.127 31.3804 12.275 32.4311 12.275H36.1835C34.456 11.5694 33.2409 9.87344 33.2409 7.89255V5.48204C33.2409 2.86841 35.3593 0.75 37.9738 0.75C39.2797 0.75 40.4634 1.27938 41.32 2.13591C42.1765 2.99244 42.7059 4.17612 42.7059 5.48204V7.89255C42.7059 9.87344 41.4889 11.5694 39.7633 12.275H43.5157C44.5663 12.275 45.4184 13.127 45.4184 14.1777V14.2118" stroke="white" stroke-width="1.5" stroke-miterlimit="10" stroke-linecap="round" stroke-linejoin="round"/>
<path d="M26.6569 29.4721L26.9643 27.4337H28.8203C29.764 27.4337 30.5279 26.6688 30.5279 25.726V21.8136C30.9854 22.1363 31.5445 22.3259 32.1466 22.3259C33.7006 22.3259 34.9607 21.0659 34.9607 19.5119C34.9607 17.9579 33.7006 16.6978 32.1466 16.6978C31.5445 16.6978 30.9854 16.8875 30.5279 17.2101V14.1777C30.5279 13.127 29.6768 12.275 28.6252 12.275H24.8729C26.5994 11.5694 27.8155 9.87344 27.8155 7.89255V5.48204C27.8155 4.17612 27.2861 2.99244 26.4295 2.13591C25.573 1.27938 24.3902 0.75 23.0834 0.75C20.4689 0.75 18.3505 2.86841 18.3505 5.48204V7.89255C18.3505 9.87344 19.5665 11.5694 21.2931 12.275H17.5416C16.49 12.275 15.6389 13.127 15.6389 14.1777V17.2101C15.1814 16.8875 14.6224 16.6978 14.0202 16.6978C12.4671 16.6978 11.207 17.9579 11.207 19.5119C11.207 21.0659 12.4671 22.3259 14.0202 22.3259C14.6224 22.3259 15.1814 22.1363 15.6389 21.8136V25.726C15.6389 26.6688 16.4028 27.4337 17.3465 27.4337H19.2025L20.4051 35.413C20.5084 36.0969 21.0953 36.602 21.7865 36.602H24.3803C25.0715 36.602 25.6584 36.0969 25.7618 35.413L26.1932 32.5486" stroke="white" stroke-width="1.5" stroke-miterlimit="10" stroke-linecap="round" stroke-linejoin="round"/>
</svg>
